<svg xmlns="http://www.w3.org/2000/svg" width="50" height="50" viewBox="0 0 50 50">
  <path id="Icon_awesome-pause" data-name="Icon awesome-pause" d="M16.071,52.18H5.357A5.359,5.359,0,0,1,0,46.823V7.537A5.359,5.359,0,0,1,5.357,2.18H16.071a5.359,5.359,0,0,1,5.357,5.357V46.823A5.359,5.359,0,0,1,16.071,52.18ZM50,46.823V7.537A5.359,5.359,0,0,0,44.643,2.18H33.929a5.359,5.359,0,0,0-5.357,5.357V46.823a5.359,5.359,0,0,0,5.357,5.357H44.643A5.359,5.359,0,0,0,50,46.823Z" transform="translate(0 -2.18)" fill="#fff"/>
</svg>
