<svg xmlns="http://www.w3.org/2000/svg" width="50" height="50" viewBox="0 0 50 50">
  <path id="Icon_awesome-power-off" data-name="Icon awesome-power-off" d="M40.079,5.367A24.439,24.439,0,0,1,50.562,25.4,24.807,24.807,0,0,1,25.613,50,24.861,24.861,0,0,1,.563,25.436,24.489,24.489,0,0,1,11.026,5.377a2.449,2.449,0,0,1,3.528.764l1.593,2.788A2.356,2.356,0,0,1,15.482,12,16.5,16.5,0,0,0,8.627,25.387,16.789,16.789,0,0,0,25.562,42.063,16.8,16.8,0,0,0,42.5,25.288a16.589,16.589,0,0,0-6.865-13.294,2.343,2.343,0,0,1-.655-3.065l1.593-2.788a2.438,2.438,0,0,1,3.508-.774ZM29.595,26.19V2.381A2.4,2.4,0,0,0,27.175,0H23.95A2.4,2.4,0,0,0,21.53,2.381V26.19a2.4,2.4,0,0,0,2.419,2.381h3.226A2.4,2.4,0,0,0,29.595,26.19Z" transform="translate(-0.562)" fill="#fff"/>
</svg>
