<svg xmlns="http://www.w3.org/2000/svg" width="53.521" height="57.797" viewBox="0 0 53.521 57.797">
  <path id="Icon_metro-shuffle" data-name="Icon metro-shuffle" d="M41.28,38.749H36.165L28.1,29.82l8.065-8.929H41.28V29.82l11.29-12.5L41.28,4.82v8.929H34.829a3.076,3.076,0,0,0-2.281,1.046l-9.009,9.975-9.009-9.975a3.076,3.076,0,0,0-2.281-1.046H2.571v7.143h8.341l8.065,8.929-8.065,8.929H2.571v7.143h9.677a3.076,3.076,0,0,0,2.281-1.046l9.009-9.974,9.009,9.975a3.076,3.076,0,0,0,2.281,1.046H41.28V54.82l11.29-12.5L41.28,29.82Z" transform="translate(-1.071 -0.922)" fill="#fff" stroke="#fff" stroke-width="3"/>
</svg>
